<?xml version="1.0" encoding="utf-8"?>
<svg version="1.1" xmlns:xlink="http://www.w3.org/1999/xlink" width="115px" height="65px" xmlns="http://www.w3.org/2000/svg">
  <g transform="matrix(1 0 0 1 -9 -45 )">
    <path d="M 10 50  A 4 4 0 0 1 14 46 L 119 46  A 4 4 0 0 1 123 50 L 123 105  A 4 4 0 0 1 119 109 L 14 109  A 4 4 0 0 1 10 105 L 10 50  Z " fill-rule="nonzero" fill="#ffffff" stroke="none" fill-opacity="0" />
    <path d="M 9.5 50  A 4.5 4.5 0 0 1 14 45.5 L 119 45.5  A 4.5 4.5 0 0 1 123.5 50 L 123.5 105  A 4.5 4.5 0 0 1 119 109.5 L 14 109.5  A 4.5 4.5 0 0 1 9.5 105 L 9.5 50  Z " stroke-width="1" stroke-dasharray="9,4" stroke="#ff00fb" fill="none" stroke-dashoffset="0.5" />
  </g>
</svg>