<?xml version="1.0" encoding="utf-8"?>
<svg version="1.1" xmlns:xlink="http://www.w3.org/1999/xlink" width="27px" height="27px" xmlns="http://www.w3.org/2000/svg">
  <g transform="matrix(1 0 0 1 -23 -771 )">
    <path d="M 26.8342633928571 9.4921875  C 26.9447544642857 9.58258928571429  27 9.703125  27 9.85379464285714  L 27 24.5892857142857  C 27 25.2522321428571  26.7639508928571 25.8197544642857  26.2918526785714 26.2918526785714  C 25.8197544642857 26.7639508928571  25.2522321428571 27  24.5892857142857 27  L 2.41071428571429 27  C 1.74776785714286 27  1.18024553571429 26.7639508928571  0.708147321428571 26.2918526785714  C 0.236049107142857 25.8197544642857  0 25.2522321428571  0 24.5892857142857  L 0 9.85379464285714  C 0 9.703125  0.0552455357142857 9.58258928571429  0.165736607142857 9.4921875  C 0.24609375 9.421875  0.441964285714286 9.24860491071428  0.753348214285714 8.97237723214286  C 1.06473214285714 8.69614955357143  1.27315848214286 8.51534598214285  1.37862723214286 8.42996651785714  C 1.48409598214286 8.34458705357143  1.71261160714286 8.15625  2.06417410714286 7.86495535714286  C 2.41573660714286 7.57366071428571  2.76729910714286 7.294921875  3.11886160714286 7.02873883928571  C 3.47042410714286 6.76255580357143  3.95256696428571 6.39592633928571  4.56529017857143 5.92885044642857  C 5.17801339285714 5.46177455357143  5.89871651785714 4.92438616071428  6.72739955357143 4.31668526785714  C 7.55608258928571 3.708984375  8.52287946428572 3.00334821428571  9.62779017857143 2.19977678571429  C 9.67801339285714 2.15959821428571  9.94168526785714 1.95870535714286  10.4188058035714 1.59709821428571  C 10.8959263392857 1.23549107142857  11.2550223214286 0.971819196428572  11.49609375 0.806082589285714  C 11.7371651785714 0.640345982142858  12.05859375 0.464564732142856  12.4603794642857 0.278738839285714  C 12.8621651785714 0.0929129464285713  13.2087053571429 0  13.5 0  C 13.7912946428571 0  14.1378348214286 0.0929129464285713  14.5396205357143 0.278738839285714  C 14.94140625 0.464564732142856  15.2678571428571 0.642857142857141  15.5189732142857 0.813616071428572  C 15.7700892857143 0.984374999999998  16.1266741071429 1.24553571428571  16.5887276785714 1.59709821428571  C 17.05078125 1.94866071428571  17.3119419642857 2.14955357142857  17.3722098214286 2.19977678571429  C 18.4771205357143 3.00334821428571  19.4439174107143 3.708984375  20.2726004464286 4.31668526785714  C 21.1012834821429 4.92438616071428  21.8219866071429 5.46177455357143  22.4347098214286 5.92885044642857  C 23.0474330357143 6.39592633928571  23.5295758928571 6.76255580357143  23.8811383928571 7.02873883928571  C 24.2327008928571 7.294921875  24.5842633928571 7.57366071428571  24.9358258928571 7.86495535714286  C 25.2873883928571 8.15625  25.5159040178571 8.34458705357143  25.6213727678571 8.42996651785714  C 25.7268415178571 8.51534598214285  25.9352678571429 8.69614955357143  26.2466517857143 8.97237723214286  C 26.5580357142857 9.24860491071428  26.75390625 9.421875  26.8342633928571 9.4921875  Z M 17.7790178571429 19.2179129464286  C 18.1908482142857 18.9015066964286  18.4319196428571 18.7181919642857  18.5022321428571 18.66796875  C 21.1439732142857 16.7494419642857  22.8766741071429 15.4838169642857  23.7003348214286 14.87109375  C 23.8108258928571 14.7907366071429  23.8736049107143 14.6877790178571  23.888671875 14.5622209821429  C 23.9037388392857 14.4366629464286  23.87109375 14.3186383928571  23.7907366071429 14.2081473214286  L 23.2181919642857 13.4246651785714  C 23.1378348214286 13.3141741071429  23.0323660714286 13.2513950892857  22.9017857142857 13.236328125  C 22.7712053571429 13.2212611607143  22.6506696428571 13.25390625  22.5401785714286 13.3342633928571  C 20.2198660714286 15.0318080357143  18.4972098214286 16.2873883928571  17.3722098214286 17.1010044642857  C 17.3219866071429 17.1311383928571  17.0608258928571 17.3270089285714  16.5887276785714 17.6886160714286  C 16.1166294642857 18.0502232142857  15.7575334821429 18.3138950892857  15.5114397321429 18.4796316964286  C 15.2653459821429 18.6453683035714  14.94140625 18.8211495535714  14.5396205357143 19.0069754464286  C 14.1378348214286 19.1928013392857  13.7912946428571 19.2857142857143  13.5 19.2857142857143  C 13.2087053571429 19.2857142857143  12.8621651785714 19.1928013392857  12.4603794642857 19.0069754464286  C 12.05859375 18.8211495535714  11.7346540178571 18.6453683035714  11.4885602678571 18.4796316964286  C 11.2424665178571 18.3138950892857  10.8833705357143 18.0502232142857  10.4112723214286 17.6886160714286  C 9.93917410714286 17.3270089285714  9.67801339285714 17.1311383928571  9.62779017857143 17.1010044642857  C 7.75948660714286 15.7550223214286  6.03683035714286 14.4994419642857  4.45982142857143 13.3342633928571  C 4.34933035714286 13.25390625  4.22879464285714 13.2212611607143  4.09821428571429 13.236328125  C 3.96763392857143 13.2513950892857  3.86216517857143 13.3141741071429  3.78180803571429 13.4246651785714  L 3.20926339285714 14.2081473214286  C 3.12890625 14.3186383928571  3.09626116071429 14.4366629464286  3.111328125 14.5622209821429  C 3.12639508928571 14.6877790178571  3.18917410714286 14.7907366071429  3.29966517857143 14.87109375  C 4.12332589285714 15.4838169642857  5.85602678571429 16.7494419642857  8.49776785714286 18.66796875  C 8.59821428571429 18.7483258928571  8.84933035714286 18.9391741071429  9.25111607142857 19.2405133928571  C 9.65290178571429 19.5418526785714  9.97935267857143 19.7779017857143  10.23046875 19.9486607142857  C 10.4815848214286 20.1194196428571  10.8030133928571 20.3178013392857  11.1947544642857 20.5438058035714  C 11.5864955357143 20.7698102678571  11.9757254464286 20.9380580357143  12.3624441964286 21.0485491071429  C 12.7491629464286 21.1590401785714  13.1283482142857 21.2142857142857  13.5 21.2142857142857  C 13.8716517857143 21.2142857142857  14.2508370535714 21.1590401785714  14.6375558035714 21.0485491071429  C 15.0242745535714 20.9380580357143  15.4210379464286 20.7647879464286  15.8278459821429 20.5287388392857  C 16.2346540178571 20.2926897321429  16.55859375 20.0943080357143  16.7996651785714 19.93359375  C 17.0407366071429 19.7728794642857  17.3671875 19.5343191964286  17.7790178571429 19.2179129464286  Z " fill-rule="nonzero" fill="#27bbf2" stroke="none" transform="matrix(1 0 0 1 23 771 )" />
  </g>
</svg>