<?xml version="1.0" encoding="utf-8"?>
<svg version="1.1" xmlns:xlink="http://www.w3.org/1999/xlink" width="87px" height="81px" xmlns="http://www.w3.org/2000/svg">
  <defs>
    <linearGradient gradientUnits="userSpaceOnUse" x1="43.5" y1="47.79" x2="43.5" y2="48.523941" id="LinearGradient2">
      <stop id="Stop3" stop-color="#cacaca" offset="0" />
      <stop id="Stop4" stop-color="#f70000" offset="1" />
    </linearGradient>
    <mask fill="white" id="clip5">
      <path d="M 0 17.3571428571429  L 43.5 0  L 87 17.3571428571429  L 87 23.1428571428571  L 81.2 23.1428571428571  C 81.2 23.9263392857143  80.8903645833333 24.6043526785714  80.27109375 25.1768973214286  C 79.6518229166667 25.7494419642857  78.9192708333333 26.0357142857143  78.0734375 26  L 8.9265625 26  C 8.08072916666667 26.0357142857143  7.34817708333333 25.7494419642857  6.72890625 25.1768973214286  C 6.10963541666667 24.6043526785714  5.8 23.9263392857143  5.8 23.1428571428571  L 0 23.1428571428571  L 0 17.3571428571429  Z M 12 63.6428571428571  L 12 29  L 24 29  L 24 63.6428571428571  L 29 63.6428571428571  L 29 29  L 41 29  L 41 63.6428571428571  L 46 63.6428571428571  L 46 29  L 58 29  L 58 63.6428571428571  L 63 63.6428571428571  L 63 29  L 75 29  L 75 63.6428571428571  L 78.0734375 63.6428571428571  C 78.9192708333333 63.6428571428571  79.6518229166667 63.9291294642857  80.27109375 64.5016741071429  C 80.8903645833333 65.07421875  81.2 65.7522321428572  81.2 66.5357142857143  L 81.2 69  L 5.8 69  L 5.8 66.5357142857143  C 5.8 65.7522321428572  6.10963541666667 65.07421875  6.72890625 64.5016741071429  C 7.34817708333333 63.9291294642857  8.08072916666667 63.6428571428571  8.9265625 63.6428571428571  L 12 63.6428571428571  Z M 3.1265625 72  L 83.8734375 72  C 84.7192708333333 72.3214285714286  85.4518229166667 72.6077008928571  86.07109375 73.1802455357143  C 86.6903645833333 73.7527901785714  87 74.4308035714286  87 75.2142857142857  L 87 81  L 0 81  L 0 75.2142857142857  C 0 74.4308035714286  0.309635416666667 73.7527901785714  0.92890625 73.1802455357143  C 1.54817708333333 72.6077008928571  2.28072916666667 72.3214285714286  3.1265625 72  Z " fill-rule="evenodd" />
    </mask>
  </defs>
  <g transform="matrix(1 0 0 1 -44 -3127 )">
    <path d="M 0 17.3571428571429  L 43.5 0  L 87 17.3571428571429  L 87 23.1428571428571  L 81.2 23.1428571428571  C 81.2 23.9263392857143  80.8903645833333 24.6043526785714  80.27109375 25.1768973214286  C 79.6518229166667 25.7494419642857  78.9192708333333 26.0357142857143  78.0734375 26  L 8.9265625 26  C 8.08072916666667 26.0357142857143  7.34817708333333 25.7494419642857  6.72890625 25.1768973214286  C 6.10963541666667 24.6043526785714  5.8 23.9263392857143  5.8 23.1428571428571  L 0 23.1428571428571  L 0 17.3571428571429  Z M 12 63.6428571428571  L 12 29  L 24 29  L 24 63.6428571428571  L 29 63.6428571428571  L 29 29  L 41 29  L 41 63.6428571428571  L 46 63.6428571428571  L 46 29  L 58 29  L 58 63.6428571428571  L 63 63.6428571428571  L 63 29  L 75 29  L 75 63.6428571428571  L 78.0734375 63.6428571428571  C 78.9192708333333 63.6428571428571  79.6518229166667 63.9291294642857  80.27109375 64.5016741071429  C 80.8903645833333 65.07421875  81.2 65.7522321428572  81.2 66.5357142857143  L 81.2 69  L 5.8 69  L 5.8 66.5357142857143  C 5.8 65.7522321428572  6.10963541666667 65.07421875  6.72890625 64.5016741071429  C 7.34817708333333 63.9291294642857  8.08072916666667 63.6428571428571  8.9265625 63.6428571428571  L 12 63.6428571428571  Z M 3.1265625 72  L 83.8734375 72  C 84.7192708333333 72.3214285714286  85.4518229166667 72.6077008928571  86.07109375 73.1802455357143  C 86.6903645833333 73.7527901785714  87 74.4308035714286  87 75.2142857142857  L 87 81  L 0 81  L 0 75.2142857142857  C 0 74.4308035714286  0.309635416666667 73.7527901785714  0.92890625 73.1802455357143  C 1.54817708333333 72.6077008928571  2.28072916666667 72.3214285714286  3.1265625 72  Z " fill-rule="nonzero" fill="url(#LinearGradient2)" stroke="none" transform="matrix(1 0 0 1 44 3127 )" />
    <path d="M 0 17.3571428571429  L 43.5 0  L 87 17.3571428571429  L 87 23.1428571428571  L 81.2 23.1428571428571  C 81.2 23.9263392857143  80.8903645833333 24.6043526785714  80.27109375 25.1768973214286  C 79.6518229166667 25.7494419642857  78.9192708333333 26.0357142857143  78.0734375 26  L 8.9265625 26  C 8.08072916666667 26.0357142857143  7.34817708333333 25.7494419642857  6.72890625 25.1768973214286  C 6.10963541666667 24.6043526785714  5.8 23.9263392857143  5.8 23.1428571428571  L 0 23.1428571428571  L 0 17.3571428571429  Z " stroke-width="2" stroke="#9d9d9d" fill="none" transform="matrix(1 0 0 1 44 3127 )" mask="url(#clip5)" />
    <path d="M 12 63.6428571428571  L 12 29  L 24 29  L 24 63.6428571428571  L 29 63.6428571428571  L 29 29  L 41 29  L 41 63.6428571428571  L 46 63.6428571428571  L 46 29  L 58 29  L 58 63.6428571428571  L 63 63.6428571428571  L 63 29  L 75 29  L 75 63.6428571428571  L 78.0734375 63.6428571428571  C 78.9192708333333 63.6428571428571  79.6518229166667 63.9291294642857  80.27109375 64.5016741071429  C 80.8903645833333 65.07421875  81.2 65.7522321428572  81.2 66.5357142857143  L 81.2 69  L 5.8 69  L 5.8 66.5357142857143  C 5.8 65.7522321428572  6.10963541666667 65.07421875  6.72890625 64.5016741071429  C 7.34817708333333 63.9291294642857  8.08072916666667 63.6428571428571  8.9265625 63.6428571428571  L 12 63.6428571428571  Z " stroke-width="2" stroke="#9d9d9d" fill="none" transform="matrix(1 0 0 1 44 3127 )" mask="url(#clip5)" />
    <path d="M 3.1265625 72  L 83.8734375 72  C 84.7192708333333 72.3214285714286  85.4518229166667 72.6077008928571  86.07109375 73.1802455357143  C 86.6903645833333 73.7527901785714  87 74.4308035714286  87 75.2142857142857  L 87 81  L 0 81  L 0 75.2142857142857  C 0 74.4308035714286  0.309635416666667 73.7527901785714  0.92890625 73.1802455357143  C 1.54817708333333 72.6077008928571  2.28072916666667 72.3214285714286  3.1265625 72  Z " stroke-width="2" stroke="#9d9d9d" fill="none" transform="matrix(1 0 0 1 44 3127 )" mask="url(#clip5)" />
  </g>
</svg>