<?xml version="1.0" encoding="utf-8"?>
<svg version="1.1" xmlns:xlink="http://www.w3.org/1999/xlink" width="115px" height="55px" xmlns="http://www.w3.org/2000/svg">
  <g transform="matrix(1 0 0 1 -9 -495 )">
    <path d="M 10 500  A 4 4 0 0 1 14 496 L 119 496  A 4 4 0 0 1 123 500 L 123 545  A 4 4 0 0 1 119 549 L 14 549  A 4 4 0 0 1 10 545 L 10 500  Z " fill-rule="nonzero" fill="#ffffff" stroke="none" fill-opacity="0" />
    <path d="M 9.5 500  A 4.5 4.5 0 0 1 14 495.5 L 119 495.5  A 4.5 4.5 0 0 1 123.5 500 L 123.5 545  A 4.5 4.5 0 0 1 119 549.5 L 14 549.5  A 4.5 4.5 0 0 1 9.5 545 L 9.5 500  Z " stroke-width="1" stroke-dasharray="9,4" stroke="#004cff" fill="none" stroke-dashoffset="0.5" />
  </g>
</svg>